<?xml version="1.0" encoding="UTF-8"?>
<svg version="1.1" xmlns="http://www.w3.org/2000/svg" width="1040" height="1250">
<g transform="translate(-800,-550) scale(2.5)">
  <path d="M0 0 C2.56258532 2.18573454 3.36278658 3.53498231 4.125 6.8125 C3.83147502 9.8064548 3.47025472 12.12199055 2.125 14.8125 C2.69347656 14.54695313 3.26195312 14.28140625 3.84765625 14.0078125 C12.86898875 9.88119296 21.95749803 6.50571776 31.84375 9.6875 C38.97603634 12.95288411 43.72182622 17.21463815 46.75390625 24.46875 C48.3725913 28.99637629 48.66358755 33.22002824 48.625 38 C48.61927979 38.83225098 48.61355957 39.66450195 48.60766602 40.52197266 C48.39192541 48.04601718 46.53968125 54.09439279 43.125 60.8125 C42.55910156 61.95847656 41.99320313 63.10445313 41.41015625 64.28515625 C38.47701513 69.97814569 35.5262922 75.14446282 31.125 79.8125 C28.95625748 79.30646008 27.12532373 78.81266187 25.125 77.8125 C25.125 77.1525 25.125 76.4925 25.125 75.8125 C23.64 75.3175 23.64 75.3175 22.125 74.8125 C22.69079309 70.30304459 24.60731859 66.99211381 26.9375 63.1875 C32.77421869 53.2563667 37.97066333 42.22235731 35.6484375 30.3828125 C34.28881783 26.30395349 32.73968614 24.03841983 29.125 21.8125 C20.06783177 19.30191652 12.0570517 21.98811475 4.125 26.4375 C-2.49729874 30.62220694 -9.72924186 36.0531285 -13.875 42.8125 C-14.34670654 45.87950289 -14.34670654 45.87950289 -14.30737305 49.32519531 C-14.3175647 49.96951508 -14.32775635 50.61383484 -14.33825684 51.27767944 C-14.36835313 53.39875013 -14.37764704 55.51936897 -14.38671875 57.640625 C-14.40356804 59.1146596 -14.42171863 60.58867984 -14.44111633 62.06268311 C-14.48859577 65.93582679 -14.51841816 69.80891231 -14.54455566 73.68225098 C-14.57437174 77.63724251 -14.62089843 81.59203366 -14.66601562 85.546875 C-14.75202523 93.30198386 -14.81938063 101.05710732 -14.875 108.8125 C-12.76873968 107.21102104 -10.66496262 105.60645125 -8.5625 104 C-7.96759766 103.54818359 -7.37269531 103.09636719 -6.75976562 102.63085938 C-4.42166012 100.84135963 -2.14854757 99.09081528 -0.08203125 96.98828125 C1.125 95.8125 1.125 95.8125 3.125 95.8125 C3.393125 95.173125 3.66125 94.53375 3.9375 93.875 C5.125 91.8125 5.125 91.8125 8.125 90.8125 C6.91434835 87.18054504 5.58808874 86.38353808 2.5625 84.125 C1.73621094 83.50238281 0.90992188 82.87976563 0.05859375 82.23828125 C-0.89853516 81.53251953 -0.89853516 81.53251953 -1.875 80.8125 C-1.09116433 76.95107796 0.55310432 74.79921756 3.125 71.8125 C11.48098853 74.7590059 18.48624657 81.07087541 25.125 86.8125 C23.56488817 90.2902493 21.49327674 93.08474027 19.125 96.0625 C18.42375 96.95453125 17.7225 97.8465625 17 98.765625 C16.38125 99.44109375 15.7625 100.1165625 15.125 100.8125 C14.465 100.8125 13.805 100.8125 13.125 100.8125 C12.88136719 101.38742187 12.63773438 101.96234375 12.38671875 102.5546875 C9.10140886 108.43366309 2.93073272 112.82456314 -2.80078125 116.19921875 C-10.26051977 120.22421897 -10.26051977 120.22421897 -15.13671875 126.76171875 C-15.60677412 129.80138809 -15.60677412 129.80138809 -15.71484375 132.84765625 C-16.03359053 138.74835877 -18.26679356 144.71018766 -22.5625 148.875 C-26.69761983 151.29365499 -30.08359205 152.25901114 -34.875 151.8125 C-38.70377302 149.89811349 -41.97556688 147.72309759 -43.875 143.8125 C-43.80577498 139.9358988 -43.44568274 137.61568312 -41.1875 134.4375 C-38.30583556 132.41254661 -36.39292069 131.88579001 -32.875 131.8125 C-30.5 133.125 -30.5 133.125 -28.875 134.8125 C-28.875 135.4725 -28.875 136.1325 -28.875 136.8125 C-28.215 136.8125 -27.555 136.8125 -26.875 136.8125 C-26.875 133.5125 -26.875 130.2125 -26.875 126.8125 C-27.6484375 126.85890625 -28.421875 126.9053125 -29.21875 126.953125 C-36.0467156 127.18973767 -41.2941357 127.0046376 -46.875 122.8125 C-52.7038512 116.9836488 -55.8480603 110.09645909 -55.875 101.8125 C-54.69047585 81.64983898 -44.80629724 63.14778134 -33.4375 46.875 C-29.53688303 41.25236421 -27.47698525 36.63499946 -26.875 29.8125 C-25.23449438 18.68279517 -22.56229245 7.41536665 -13.5625 -0.125 C-8.82678167 -1.99726074 -4.6996574 -1.94116284 0 0 Z M-13.875 13.8125 C-15.16112676 14.87228933 -15.16112676 14.87228933 -14.97265625 17.31640625 C-14.96105469 18.32574219 -14.94945312 19.33507812 -14.9375 20.375 C-14.92847656 21.38691406 -14.91945313 22.39882813 -14.91015625 23.44140625 C-14.89855469 24.22386719 -14.88695312 25.00632812 -14.875 25.8125 C-11.32274296 24.09814986 -8.13478366 22.03507977 -4.875 19.8125 C-6.38449493 16.79351014 -8.89155082 16.21289451 -11.875 14.8125 C-12.535 14.4825 -13.195 14.1525 -13.875 13.8125 Z M-27.875 56.8125 C-35.64371745 67.60934657 -40.31036941 79.07418774 -43.875 91.8125 C-44.16890625 92.79089844 -44.16890625 92.79089844 -44.46875 93.7890625 C-45.03756312 96.62218939 -45.08494113 99.36242324 -45.125 102.25 C-45.15078125 103.36246094 -45.1765625 104.47492188 -45.203125 105.62109375 C-44.76022651 109.92880881 -43.09522764 112.45147686 -40.25 115.625 C-36.63002642 117.43498679 -32.85181684 117.40364845 -28.875 116.8125 C-26.63196329 114.99240211 -26.63196329 114.99240211 -26.63449097 112.37008667 C-26.63893219 111.34416412 -26.64337341 110.31824158 -26.64794922 109.26123047 C-26.64810028 108.10017792 -26.64825134 106.93912537 -26.64840698 105.7428894 C-26.65872955 104.48453278 -26.66905212 103.22617615 -26.6796875 101.9296875 C-26.68393234 100.00287643 -26.68393234 100.00287643 -26.68826294 98.03713989 C-26.69590191 94.62087233 -26.71555248 91.20477463 -26.7376709 87.78857422 C-26.75812376 84.30308327 -26.76726345 80.8175649 -26.77734375 77.33203125 C-26.79879825 70.49211769 -26.83293729 63.652317 -26.875 56.8125 C-27.205 56.8125 -27.535 56.8125 -27.875 56.8125 Z " fill="#FFFFFF" transform="translate(532.875,304.1875)"/>
  <path d="M0 0 C2.04513053 2.04513053 1.16404679 6.30905178 1.16796875 9.12109375 C1.17129715 9.93618912 1.17462555 10.75128448 1.17805481 11.59107971 C1.18312742 13.31860793 1.18546303 15.04614598 1.18530273 16.77368164 C1.18748792 19.42285245 1.20563621 22.07160616 1.22460938 24.72070312 C1.22754344 26.3958319 1.22952815 28.07096267 1.23046875 29.74609375 C1.23765427 30.54196396 1.24483978 31.33783417 1.25224304 32.15782166 C1.22882227 37.77117773 1.22882227 37.77117773 -1 40 C-3.13208008 40.51489258 -3.13208008 40.51489258 -5.76953125 40.89453125 C-6.73439453 41.04237061 -7.69925781 41.19020996 -8.69335938 41.3425293 C-10.23733398 41.57516479 -10.23733398 41.57516479 -11.8125 41.8125 C-35.98611774 45.78881497 -57.78817322 58.03119409 -72.58398438 77.93920898 C-83.36445843 93.18530094 -88.56218591 109.34207798 -91.421875 127.6484375 C-92 131 -92 131 -93 133 C-98.39346988 133.02464849 -103.78690725 133.04283531 -109.18041992 133.05493164 C-111.01668875 133.05997231 -112.85295354 133.06680477 -114.68920898 133.07543945 C-117.32276401 133.08751672 -119.95626616 133.09323081 -122.58984375 133.09765625 C-123.82890724 133.10539818 -123.82890724 133.10539818 -125.09300232 133.11329651 C-127.06236368 133.11349205 -129.03161614 133.06204152 -131 133 C-132 132 -132 132 -132.1875 128.125 C-132.05174513 114.05174513 -132.05174513 114.05174513 -129 111 C-125.77280105 110.49859903 -122.53770521 110.09858323 -119.296875 109.6953125 C-115.91832378 108.98277445 -113.85710212 107.88174657 -111 106 C-109.515 105.505 -109.515 105.505 -108 105 C-105.15458133 99.64873938 -104.33961826 93.94343563 -105 88 C-105.90650863 85.78278192 -106.93343496 83.74102656 -108.125 81.6640625 C-109 80 -109 80 -109 78 C-109.61875 77.690625 -110.2375 77.38125 -110.875 77.0625 C-112.25 76.375 -113.625 75.6875 -115 75 C-114.58260148 69.14151361 -112.98598635 65.78737184 -109.5 61.125 C-109.08363281 60.54492188 -108.66726563 59.96484375 -108.23828125 59.3671875 C-105.30691964 55.30691964 -105.30691964 55.30691964 -104 54 C-100.49336227 54.34378801 -97.38135337 54.86206368 -94.0625 56.0625 C-89.14737551 57.56712994 -84.82813398 57.95380903 -80.125 55.5 C-79.42375 55.005 -78.7225 54.51 -78 54 C-77.34 54 -76.68 54 -76 54 C-76 53.34 -76 52.68 -76 52 C-75.566875 51.608125 -75.13375 51.21625 -74.6875 50.8125 C-70.44076091 46.25118764 -69.51124822 41.09721102 -69.6953125 35.07421875 C-70.1113281 32.24211254 -71.39816919 30.33600326 -73 28 C-73 26.68 -73 25.36 -73 24 C-70.96208908 22.39748844 -69.10398859 21.1494 -66.875 19.875 C-66.30523437 19.52824219 -65.73546875 19.18148438 -65.1484375 18.82421875 C-61.54777756 16.68837274 -58.00987864 15.18224386 -54 14 C-53.62488281 14.54269531 -53.24976563 15.08539063 -52.86328125 15.64453125 C-48.11953162 22.31104954 -48.11953162 22.31104954 -40.78125 25.49609375 C-34.63578497 26.41601676 -29.5318032 25.92988786 -24 23 C-19.08839269 19.13341552 -18.64207031 15.89007725 -17.8125 9.75 C-17.69519531 8.52796875 -17.57789063 7.3059375 -17.45703125 6.046875 C-17 3 -17 3 -15 1 C-10.2358489 -0.48879722 -4.94588054 -0.31140729 0 0 Z " fill="#FFFFFF" transform="translate(524,242)"/>
  <path d="M0 0 C0.82290527 0.00202423 1.64581055 0.00404846 2.49365234 0.00613403 C3.33331543 0.00517731 4.17297852 0.00422058 5.03808594 0.00323486 C6.81689529 0.00255306 8.59570712 0.00440737 10.37451172 0.00857544 C13.10699011 0.01392371 15.83930411 0.00863048 18.57177734 0.00222778 C20.29573604 0.00288856 22.01969464 0.00416973 23.74365234 0.00613403 C24.56655762 0.0041098 25.38946289 0.00208557 26.23730469 0 C32.0037018 0.02399599 32.0037018 0.02399599 33.11865234 1.13894653 C33.41399136 3.26581241 33.70408218 5.3935471 33.96679688 7.52468872 C36.99766944 31.4315138 47.83358855 54.77378736 66.86157227 70.18948364 C69.55007517 72.26829763 72.31278443 74.22250145 75.11865234 76.13894653 C76.18212891 76.87113403 77.24560547 77.60332153 78.34130859 78.35769653 C91.71351954 87.06669418 105.83346039 90.47168545 121.39599609 92.67410278 C124.11865234 93.13894653 124.11865234 93.13894653 126.11865234 94.13894653 C126.11865234 106.67894653 126.11865234 119.21894653 126.11865234 132.13894653 C122.74794877 133.26251439 120.6372068 133.08303113 117.11865234 132.76394653 C116.06677734 132.67371216 115.01490234 132.58347778 113.93115234 132.49050903 C111.11865234 132.13894653 111.11865234 132.13894653 108.11865234 131.13894653 C106.80298119 128.50760423 106.93401224 126.32607104 106.80615234 123.38894653 C106.29694068 116.83970109 104.49239223 113.58050755 99.93115234 108.88894653 C94.62875003 105.58967398 89.44578788 104.62279476 83.30615234 105.82644653 C80.00220454 106.70711555 77.71219529 107.85662874 75.11865234 110.13894653 C74.45865234 110.13894653 73.79865234 110.13894653 73.11865234 110.13894653 C72.65458984 111.31457153 72.65458984 111.31457153 72.18115234 112.51394653 C71.11865234 115.13894653 71.11865234 115.13894653 70.11865234 117.13894653 C65.38175614 116.6008238 62.0408678 115.28497836 57.93115234 112.88894653 C56.90634766 112.30629028 55.88154297 111.72363403 54.82568359 111.12332153 C51.98033896 109.03755664 50.68683099 107.26452597 49.11865234 104.13894653 C49.77865234 103.37582153 50.43865234 102.61269653 51.11865234 101.82644653 C54.13205939 97.31169789 53.78661904 92.35840724 53.11865234 87.13894653 C51.82870441 83.71919735 51.82870441 83.71919735 50.11865234 81.13894653 C49.78865234 80.14894653 49.45865234 79.15894653 49.11865234 78.13894653 C47.28580791 77.01378569 47.28580791 77.01378569 45.11865234 76.13894653 C44.54373047 75.79605591 43.96880859 75.45316528 43.37646484 75.09988403 C38.18122396 72.88876075 31.08536916 73.30576145 25.71240234 74.81472778 C23.63756146 75.67383043 23.63756146 75.67383043 21.11865234 77.13894653 C15.09449689 72.02754191 9.54971187 63.99094421 8.11865234 56.13894653 C9.21177734 55.43769653 10.30490234 54.73644653 11.43115234 54.01394653 C15.01447724 51.38810926 16.79168362 49.51013762 18.11865234 45.13894653 C18.91326106 37.44117456 19.00182645 31.34189742 14.11865234 25.13894653 C10.31278279 21.52003197 7.6226501 20.59145258 2.43115234 20.07644653 C-1.01806641 19.72879028 -1.01806641 19.72879028 -3.88134766 19.13894653 C-7.52947286 13.66675873 -7.28530887 7.55480117 -6.88134766 1.13894653 C-5.03858257 -0.70381855 -2.45171007 0.01020242 0 0 Z " fill="#FFFFFF" transform="translate(398.88134765625,383.8610534667969)"/>
  <path d="M0 0 C1.89551022 -0.05441656 3.7914792 -0.09298035 5.6875 -0.125 C6.74324219 -0.14820313 7.79898438 -0.17140625 8.88671875 -0.1953125 C12.25397943 0.01593346 15.52120767 0.52120767 18 3 C18.13284675 4.70634264 18.23098129 6.41543626 18.3125 8.125 C18.77132477 13.2585177 19.40534392 17.16636402 23 21 C28.36010192 25.37945958 33.55466823 26.77283837 40.421875 26.41796875 C47.28078738 25.30599356 50.83933642 21.20082948 55 16 C58 15 58 15 60.5234375 16.07421875 C70.06597173 21.47294017 70.06597173 21.47294017 74 25 C73.7834375 25.53367187 73.566875 26.06734375 73.34375 26.6171875 C70.90778133 33.13565923 69.55116629 39.474342 71.7265625 46.26953125 C74.20420336 51.69818338 77.32912606 54.72526471 82.75 57.3125 C89.62542774 58.76691741 94.88213397 57.27234695 101 54 C102.32 54 103.64 54 105 54 C106.7458999 56.25536898 108.18409057 58.37496155 109.625 60.8125 C110.01945313 61.45509766 110.41390625 62.09769531 110.8203125 62.75976562 C111.88870894 64.50132401 112.94491226 66.25034678 114 68 C114.99 69.485 114.99 69.485 116 71 C116 72.9375 116 72.9375 115 75 C114.071875 75.5775 113.14375 76.155 112.1875 76.75 C108.10882769 79.62906281 106.41392936 82.2418894 105 87 C104.11079884 93.23348163 104.48758368 98.82121728 107.65625 104.34375 C111.09549426 108.58281851 116.36325026 110.69091646 121.69921875 111.31640625 C123.17841797 111.43822266 123.17841797 111.43822266 124.6875 111.5625 C126.17830078 111.68818359 126.17830078 111.68818359 127.69921875 111.81640625 C128.45847656 111.87699219 129.21773437 111.93757813 130 112 C133.75912409 129.48175182 133.75912409 129.48175182 132 133 C119.46 133 106.92 133 94 133 C92.60154503 128.10540761 91.77107009 124.56501825 91.3125 119.6875 C88.90602933 102.13332247 80.02173862 84.47488197 67.6875 71.890625 C66 70 66 70 66 68 C65.34 68 64.68 68 64 68 C64 67.34 64 66.68 64 66 C63.42765625 65.74476563 62.8553125 65.48953125 62.265625 65.2265625 C59.75695997 63.86842315 57.89333151 62.2560357 55.75 60.375 C41.38140837 48.7018458 22.35783505 42.49161609 4.1875 40.375 C1 40 1 40 0 39 C-0.08865208 36.1156618 -0.11521296 33.25537842 -0.09765625 30.37109375 C-0.0962413 29.50686295 -0.09482635 28.64263214 -0.09336853 27.75221252 C-0.08775239 24.98060708 -0.07519719 22.2090812 -0.0625 19.4375 C-0.05748708 17.5631522 -0.05292381 15.68880315 -0.04882812 13.81445312 C-0.03777772 9.20960456 -0.0205023 4.60481579 0 0 Z " fill="#FFFFFF" transform="translate(534,242)"/>
  <path d="M0 0 C1.60279192 0.00015914 3.20558896 0.00585476 4.80834961 0.01586914 C5.65038437 0.01728409 6.49241913 0.01869904 7.35997009 0.02015686 C10.06024671 0.02577276 12.76044163 0.03832791 15.46069336 0.05102539 C17.28686404 0.05603834 19.11303602 0.06060161 20.93920898 0.06469727 C25.42556878 0.07574735 29.9118672 0.0930226 34.39819336 0.11352539 C35.6522002 3.87554593 35.10925181 6.32879296 34.52319336 10.23852539 C34.24862305 12.12958008 34.24862305 12.12958008 33.96850586 14.05883789 C33.39819336 17.11352539 33.39819336 17.11352539 32.39819336 18.11352539 C30.50490843 18.27252599 28.60811286 18.39050372 26.71069336 18.48852539 C21.16773878 18.93511415 16.83997524 19.35818135 12.96850586 23.72680664 C8.34304319 29.8287588 7.6926994 35.54441224 8.39819336 43.11352539 C9.70538599 46.4823131 9.70538599 46.4823131 11.39819336 49.11352539 C11.72819336 50.10352539 12.05819336 51.09352539 12.39819336 52.11352539 C14.39390659 52.79291713 16.39414109 53.45914098 18.39819336 54.11352539 C19.05819336 55.10352539 19.71819336 56.09352539 20.39819336 57.11352539 C19.15625146 59.36831312 17.90511715 61.6171084 16.64819336 63.86352539 C16.30014648 64.49774414 15.95209961 65.13196289 15.59350586 65.78540039 C13.55460442 69.41011406 11.54000449 72.31136952 8.39819336 75.11352539 C7.69694336 74.82477539 6.99569336 74.53602539 6.27319336 74.23852539 C4.85006836 73.68165039 4.85006836 73.68165039 3.39819336 73.11352539 C1.97506836 72.55665039 1.97506836 72.55665039 0.52319336 71.98852539 C-5.7276897 70.23827813 -10.20833575 70.84776854 -15.80883789 73.90258789 C-18.32895899 75.60463047 -19.92441336 77.59743546 -21.60180664 80.11352539 C-22.26180664 81.10352539 -22.92180664 82.09352539 -23.60180664 83.11352539 C-24.80998421 88.77442191 -25.07960522 93.76669688 -22.60180664 99.11352539 C-21.61180664 100.59852539 -21.61180664 100.59852539 -20.60180664 102.11352539 C-20.60180664 103.43352539 -20.60180664 104.75352539 -20.60180664 106.11352539 C-22.77397482 107.90609136 -24.78603374 109.33839961 -27.16430664 110.80102539 C-27.77338867 111.20385742 -28.3824707 111.60668945 -29.01000977 112.02172852 C-33.24454049 114.6968765 -36.60811966 115.73433938 -41.60180664 116.11352539 C-44.60180664 111.36352539 -44.60180664 111.36352539 -44.60180664 109.11352539 C-45.26180664 109.11352539 -45.92180664 109.11352539 -46.60180664 109.11352539 C-46.60180664 108.45352539 -46.60180664 107.79352539 -46.60180664 107.11352539 C-53.35178261 104.65898868 -61.13466456 103.42658195 -68.01196289 106.02368164 C-72.40386155 108.57672927 -75.37458382 111.48090192 -77.60180664 116.11352539 C-78.55728952 120.72760937 -78.75355859 125.40921506 -78.60180664 130.11352539 C-83.06514848 131.83645674 -86.70381895 132.3359333 -91.47680664 132.23852539 C-92.62922852 132.22047852 -93.78165039 132.20243164 -94.96899414 132.18383789 C-95.83782227 132.16063477 -96.70665039 132.13743164 -97.60180664 132.11352539 C-97.62645514 126.72005551 -97.64464195 121.32661814 -97.65673828 115.93310547 C-97.66177896 114.09683664 -97.66861141 112.26057185 -97.67724609 110.42431641 C-97.68932336 107.79076138 -97.69503745 105.15725923 -97.69946289 102.52368164 C-97.70462418 101.69763931 -97.70978546 100.87159698 -97.71510315 100.02052307 C-97.71529869 98.05116172 -97.66384816 96.08190926 -97.60180664 94.11352539 C-95.53842622 92.05014497 -91.56718431 92.19951805 -88.72680664 91.73852539 C-66.85903933 88.00250688 -48.41072765 79.9224464 -32.60180664 64.11352539 C-31.83223633 63.34395508 -31.06266602 62.57438477 -30.26977539 61.78149414 C-17.2682769 48.07122571 -9.55502164 31.64002746 -6.60180664 13.11352539 C-6.2269394 10.821837 -5.85195105 8.53016842 -5.47680664 6.23852539 C-5.32985352 5.27172852 -5.18290039 4.30493164 -5.03149414 3.30883789 C-4.31543637 -0.34956637 -3.97531648 0.12529805 0 0 Z " fill="#FFFFFF" transform="translate(631.601806640625,383.886474609375)"/>
  <path d="M0 0 C5.61 0 11.22 0 17 0 C19.0381455 4.75567284 20.75981839 9.12984257 22.26171875 14.02734375 C22.45723831 14.66112442 22.65275787 15.29490509 22.85420227 15.94789124 C23.4689019 17.94334204 24.0782911 19.94036691 24.6875 21.9375 C25.10706942 23.30284273 25.52698825 24.66807814 25.94726562 26.03320312 C26.96887952 29.35423972 27.98574245 32.67670833 29 36 C28.96447021 34.94498291 28.92894043 33.88996582 28.89233398 32.80297852 C28.76232921 28.90258183 28.63904161 25.00199716 28.51782227 21.10131836 C28.46432885 19.41050377 28.40899402 17.71974642 28.35180664 16.02905273 C28.27009959 13.60412953 28.19493605 11.17908006 28.12109375 8.75390625 C28.09405869 7.99348526 28.06702362 7.23306427 28.03916931 6.44960022 C27.98708701 4.63376666 27.98813415 2.81654157 28 1 C29 0 29 0 32.125 -0.1328125 C33.40375 -0.13023437 34.6825 -0.12765625 36 -0.125 C37.27875 -0.12757813 38.5575 -0.13015625 39.875 -0.1328125 C43 0 43 0 44 1 C44.09960152 3.20324974 44.12799757 5.4097349 44.12939453 7.61523438 C44.13114685 8.30627762 44.13289917 8.99732086 44.13470459 9.70930481 C44.13912254 12.00414507 44.13618533 14.29890889 44.1328125 16.59375 C44.13348556 18.18176285 44.13445559 19.76977559 44.13571167 21.35778809 C44.13718857 24.6901955 44.13503436 28.02257616 44.13037109 31.35498047 C44.1246738 35.6359851 44.12795285 39.91692705 44.13394356 44.19792938 C44.1375494 47.47833736 44.13641048 50.75873037 44.13381577 54.03913879 C44.13314656 55.6180675 44.1339747 57.19699754 44.13629532 58.77592468 C44.13882223 60.97890853 44.13498075 63.18178949 44.12939453 65.38476562 C44.12859894 66.64083618 44.12780334 67.89690674 44.12698364 69.19104004 C44 72 44 72 43 73 C40.34177343 73.12658222 37.72112576 73.18520214 35.0625 73.1875 C34.32064453 73.19974609 33.57878906 73.21199219 32.81445312 73.22460938 C30.87486371 73.22988478 28.9357629 73.12188902 27 73 C24.23674469 70.23674469 23.65872555 67.03222376 22.6171875 63.3671875 C22.39805695 62.61535187 22.17892639 61.86351624 21.95315552 61.08889771 C21.25432326 58.68598916 20.56457103 56.28058078 19.875 53.875 C19.4029392 52.24592109 18.93029018 50.6170125 18.45703125 48.98828125 C17.29785146 44.99413225 16.14680856 40.99771778 15 37 C15.00523682 38.05501709 15.01047363 39.11003418 15.01586914 40.19702148 C15.03391901 44.0975663 15.04543195 47.9981074 15.05493164 51.89868164 C15.0599719 53.58944316 15.06680405 55.28020029 15.07543945 56.97094727 C15.08751857 59.39600707 15.09323123 61.82100944 15.09765625 64.24609375 C15.10281754 65.00651474 15.10797882 65.76693573 15.11329651 66.55039978 C15.11349238 68.3673257 15.06197277 70.18413127 15 72 C14.505 72.495 14.505 72.495 14 73 C9.38 73 4.76 73 0 73 C0 48.91 0 24.82 0 0 Z " fill="#FFFFFF" transform="translate(461,565)"/>
  <path d="M0 0 C4.73727661 3.8950941 8.09428941 8.84116802 9 15 C9.1215819 17.69066038 9.08849884 20.3007854 9 23 C7.24440058 24.75559942 4.96417558 24.13221919 2.62890625 24.13671875 C1.92636719 24.13285156 1.22382812 24.12898437 0.5 24.125 C-0.20253906 24.12886719 -0.90507813 24.13273438 -1.62890625 24.13671875 C-6.87338622 24.12661378 -6.87338622 24.12661378 -8 23 C-8.23192865 21.48530552 -8.41215238 19.96245438 -8.5625 18.4375 C-8.68818359 17.19806641 -8.68818359 17.19806641 -8.81640625 15.93359375 C-8.87699219 15.29550781 -8.93757812 14.65742187 -9 14 C-10.65 13.34 -12.3 12.68 -14 12 C-16.82202861 14.4174737 -16.98667141 14.89896729 -17.51171875 18.87890625 C-17.58567983 20.43945164 -17.64346003 22.00082377 -17.6875 23.5625 C-17.72020996 24.37734863 -17.75291992 25.19219727 -17.78662109 26.03173828 C-17.87415278 28.35433838 -17.94113071 30.67651931 -18 33 C-18.04447266 34.47919922 -18.04447266 34.47919922 -18.08984375 35.98828125 C-18.19626216 43.21290872 -18.29465443 51.1160367 -16 58 C-14.02 58 -12.04 58 -10 58 C-7.96834048 53.66579301 -7.47939368 49.71403788 -7 45 C-7.969375 45.020625 -8.93875 45.04125 -9.9375 45.0625 C-13 45 -13 45 -14 44 C-14.09873816 42.00200428 -14.12971799 40.00042842 -14.125 38 C-14.12757813 36.906875 -14.13015625 35.81375 -14.1328125 34.6875 C-14 32 -14 32 -13 31 C-11.36527118 30.91299658 -9.72685945 30.89298937 -8.08984375 30.90234375 C-6.60581055 30.90717773 -6.60581055 30.90717773 -5.09179688 30.91210938 C-4.05087891 30.92048828 -3.00996094 30.92886719 -1.9375 30.9375 C-0.37032227 30.94426758 -0.37032227 30.94426758 1.22851562 30.95117188 C3.8190666 30.96300087 6.40950559 30.97948311 9 31 C10.24339946 34.73019838 10.16232121 38.21176728 10.16796875 42.09765625 C10.17296135 43.28276039 10.17296135 43.28276039 10.17805481 44.49180603 C10.18311351 46.16030292 10.18546346 47.8288099 10.18530273 49.49731445 C10.18749471 52.05632012 10.2056762 54.61489842 10.22460938 57.17382812 C10.22754236 58.79426936 10.22952779 60.41471264 10.23046875 62.03515625 C10.23765427 62.80287857 10.24483978 63.57060089 10.25224304 64.36158752 C10.22883191 69.77116809 10.22883191 69.77116809 8 72 C5.6875 72.30078125 5.6875 72.30078125 3 72.3125 C2.113125 72.32925781 1.22625 72.34601563 0.3125 72.36328125 C-0.450625 72.24339844 -1.21375 72.12351562 -2 72 C-2.66 71.01 -3.32 70.02 -4 69 C-4.78375 69.66 -5.5675 70.32 -6.375 71 C-10.65957264 73.85299742 -15.02986718 73.67295436 -20 73 C-23.3125 71.75 -23.3125 71.75 -26 70 C-26.86625 69.484375 -27.7325 68.96875 -28.625 68.4375 C-37.95877658 58.85809772 -36.26344658 43.07566746 -36.15625 30.74609375 C-35.75612043 10.38950209 -35.75612043 10.38950209 -29.38671875 3.171875 C-20.83274075 -3.98593648 -10.00191029 -5.58142315 0 0 Z " fill="#FFFFFF" transform="translate(595,566)"/>
  <path d="M0 0 C1.97119141 -0.34057617 1.97119141 -0.34057617 4.3515625 -0.29296875 C5.20234375 -0.28330078 6.053125 -0.27363281 6.9296875 -0.26367188 C7.81914062 -0.23853516 8.70859375 -0.21339844 9.625 -0.1875 C10.97078125 -0.16719727 10.97078125 -0.16719727 12.34375 -0.14648438 C14.56309789 -0.11106925 16.78125188 -0.06168461 19 0 C21.12991739 5.74917086 22.28742275 11.65770396 23.53125 17.64453125 C23.76783325 18.76889084 24.0044165 19.89325043 24.24816895 21.05168152 C25.00208679 24.63793615 25.75118625 28.2251765 26.5 31.8125 C27.24985267 35.38888733 28.00068905 38.96506674 28.75183105 42.54118347 C29.21805974 44.76258691 29.68336091 46.98418528 30.14758301 49.20600891 C31.25928944 54.51955371 32.3952617 59.8224047 33.63928223 65.10673523 C34.14361643 67.75378577 34.13759257 70.31694495 34 73 C31.35409986 73.02684679 28.70846904 73.04676357 26.0625 73.0625 C25.30775391 73.07087891 24.55300781 73.07925781 23.77539062 73.08789062 C21.85005687 73.09652441 19.92464419 73.05224333 18 73 C15.44946069 70.44946069 16.2100099 62.09014574 16 59 C11.71 59 7.42 59 3 59 C3.04125 60.010625 3.0825 61.02125 3.125 62.0625 C3 66 3 66 1 73 C-4.28 73 -9.56 73 -15 73 C-16.23913053 69.28260841 -15.65805053 67.38361745 -14.86010742 63.55664062 C-14.72691605 62.9075322 -14.59372467 62.25842377 -14.45649719 61.58964539 C-14.01391485 59.44348688 -13.56002164 57.29990253 -13.10546875 55.15625 C-12.79445586 53.66567049 -12.4839412 52.17498695 -12.17390442 50.6842041 C-11.52221311 47.55939453 -10.8650189 44.43580743 -10.20385742 41.31298828 C-9.35673976 37.31004972 -8.52246659 33.30456564 -7.69219494 29.29810333 C-7.05278401 26.21903561 -6.4070017 23.14133157 -5.7592411 20.06401062 C-5.44918556 18.58761146 -5.14101772 17.11081457 -4.8347683 15.63362122 C-4.40560337 13.56878835 -3.96800032 11.50592283 -3.52807617 9.44335938 C-3.28079269 8.26882202 -3.03350922 7.09428467 -2.7787323 5.88415527 C-2 3 -2 3 0 0 Z M9 20 C6.40633699 22.59366301 6.8259266 28.98861786 6.375 32.5 C6.22804688 33.58410156 6.08109375 34.66820312 5.9296875 35.78515625 C5.795625 36.81511719 5.6615625 37.84507812 5.5234375 38.90625 C5.39888184 39.85822266 5.27432617 40.81019531 5.14599609 41.79101562 C5.09781738 42.51998047 5.04963867 43.24894531 5 44 C6.18424326 45.41577477 6.18424326 45.41577477 9.5625 45.0625 C11.2640625 45.0315625 11.2640625 45.0315625 13 45 C12.48244596 36.55569721 11.5439119 28.31913693 10 20 C9.67 20 9.34 20 9 20 Z " fill="#FFFFFF" transform="translate(393,565)"/>
  <path d="M0 0 C4.76380164 3.25944323 5.89481381 8.56616792 7 14 C7.140625 16.75390625 7.140625 16.75390625 7 19 C6 20 6 20 2.62109375 20.09765625 C1.22652923 20.09098369 -0.16801743 20.07902532 -1.5625 20.0625 C-2.62887695 20.05573242 -2.62887695 20.05573242 -3.71679688 20.04882812 C-5.47790013 20.03700864 -7.23896036 20.01907263 -9 20 C-9.33 17.03 -9.66 14.06 -10 11 C-12.34533951 10.23043864 -12.34533951 10.23043864 -15 10 C-17.01951062 10.93597315 -17.01951062 10.93597315 -18 13 C-17.81732887 16.62873736 -17.51973673 18.44885617 -14.99609375 21.125 C-14.15175781 21.74375 -13.30742187 22.3625 -12.4375 23 C-11.53644531 23.67675781 -10.63539063 24.35351562 -9.70703125 25.05078125 C-8.81371094 25.69402344 -7.92039062 26.33726562 -7 27 C5.18529346 35.83382055 5.18529346 35.83382055 7 44 C7.74751966 52.43254635 7.15604296 60.17952694 1.625 66.875 C0.75875 67.57625 -0.1075 68.2775 -1 69 C-2.051875 69.86625 -2.051875 69.86625 -3.125 70.75 C-10.23777286 73.84250994 -17.80590392 73.56061047 -25 71 C-29.97496656 68.5612909 -32.58063397 65.47707748 -35.09765625 60.66015625 C-36.75681764 55.7688623 -36.29391668 51.11415031 -36 46 C-30.72 46 -25.44 46 -20 46 C-19.67 49.63 -19.34 53.26 -19 57 C-16.03 57 -13.06 57 -10 57 C-9.69950249 51.89154232 -9.93152132 49.11426631 -13 45 C-15.24695177 43.26384596 -17.45099205 41.68200778 -19.8125 40.125 C-26.15760439 35.75239545 -31.39148571 31.94817145 -34.375 24.625 C-35.65258609 17.2150007 -35.65961849 10.74373246 -32 4 C-23.95779188 -6.33998187 -10.61137354 -6.21896072 0 0 Z " fill="#FFFFFF" transform="translate(367,567)"/>
  <path d="M0 0 C4.58799627 3.93692806 6.92793684 7.99644629 8 14 C8 16.31 8 18.62 8 21 C3.05 21 -1.9 21 -7 21 C-7.65104167 18.68880208 -8.30208333 16.37760417 -8.953125 14.06640625 C-9.80174402 11.8247611 -9.80174402 11.8247611 -11.984375 11.21484375 C-13.99361533 10.96467041 -13.99361533 10.96467041 -16 11 C-16.59528233 16.63873549 -16.59528233 16.63873549 -14.1875 21.5 C-11.48655512 23.80080489 -8.5180989 25.7630558 -5.625 27.8125 C-0.00001667 31.82600162 5.75281979 36.25845937 8 43 C9.13846576 59.77837244 9.13846576 59.77837244 4 67 C-2.32585994 72.86299214 -7.52449808 74.04134391 -16 74 C-21.8819478 73.30214179 -25.91528708 71.58737557 -30 67.25 C-34.67311572 61.22442961 -35.38297901 55.40426077 -35 48 C-34 47 -34 47 -30.62109375 46.90234375 C-29.22652923 46.90901631 -27.83198257 46.92097468 -26.4375 46.9375 C-25.72658203 46.94201172 -25.01566406 46.94652344 -24.28320312 46.95117188 C-22.52209987 46.96299136 -20.76103964 46.98092737 -19 47 C-18 50 -18 50 -17.5 53.625 C-17.36754688 56.83106876 -17.36754688 56.83106876 -16 58 C-14.00041636 58.04080783 -11.99954746 58.04254356 -10 58 C-8.57337781 55.14675563 -8.68966132 53.16545451 -9 50 C-11.82800687 45.76139694 -15.11191911 43.40533828 -19.375 40.6875 C-25.97509493 36.2914195 -31.01827409 31.86342136 -33.4375 24.125 C-34.60309394 18.00863591 -34.17568112 11.67903692 -31.25 6.125 C-24.12675985 -3.7683891 -10.54752088 -6.28410191 0 0 Z " fill="#FFFFFF" transform="translate(719,566)"/>
  <path d="M0 0 C130.68 0 261.36 0 396 0 C396 1.65 396 3.3 396 5 C392.61508649 6.1283045 390.06282843 6.12418428 386.49322987 6.12304783 C385.82623747 6.12420167 385.15924508 6.12535552 384.4720408 6.12654433 C382.22114805 6.12920616 379.97032581 6.12469237 377.71943665 6.12025452 C376.09580077 6.12069031 374.47216495 6.12156536 372.84852952 6.12284368 C368.37448013 6.12508711 363.90045453 6.12106942 359.42640817 6.11606562 C354.60637497 6.11175914 349.78634318 6.11320769 344.96630859 6.1139679 C336.61113986 6.114493 328.25597892 6.11134756 319.90081215 6.10573006 C307.82054738 6.0976133 295.74028638 6.09499966 283.66001918 6.09374207 C264.06199958 6.09155182 244.46398414 6.08489249 224.8659668 6.07543945 C205.82495138 6.06626462 186.7839371 6.05918413 167.74291992 6.05493164 C166.56981883 6.05466892 165.39671774 6.05440619 164.18806813 6.05413551 C158.30314004 6.0528305 152.41821194 6.05156678 146.53328383 6.05032361 C97.68885301 6.03995186 48.84442671 6.02233429 0 6 C0 4.02 0 2.04 0 0 Z " fill="#FFFFFF" transform="translate(331,550)"/>
  <path d="M0 0 C130.68 0 261.36 0 396 0 C396 1.65 396 3.3 396 5 C265.32 5 134.64 5 0 5 C0 3.35 0 1.7 0 0 Z " fill="#FFFFFF" transform="translate(331,647)"/>
  <path d="M0 0 C14.52 0 29.04 0 44 0 C44 4.62 44 9.24 44 14 C43 15 43 15 40.05859375 15.09765625 C38.26615234 15.08025391 38.26615234 15.08025391 36.4375 15.0625 C34.64119141 15.04896484 34.64119141 15.04896484 32.80859375 15.03515625 C31.88175781 15.02355469 30.95492187 15.01195312 30 15 C30.00222061 15.71187973 30.00444122 16.42375946 30.00672913 17.1572113 C30.02673253 23.85274235 30.04197438 30.54826511 30.05181217 37.24381924 C30.05703982 40.68640348 30.06413531 44.12896312 30.07543945 47.5715332 C30.08834235 51.52555043 30.09322918 55.47955756 30.09765625 59.43359375 C30.10281754 60.67523788 30.10797882 61.91688202 30.11329651 63.19615173 C30.11340981 64.90781273 30.11340981 64.90781273 30.11352539 66.65405273 C30.115746 67.664431 30.11796661 68.67480927 30.12025452 69.71580505 C30 72 30 72 29 73 C26.48863896 73.09975032 24.01096585 73.13882183 21.5 73.125 C20.79746094 73.12886719 20.09492187 73.13273438 19.37109375 73.13671875 C14.12661378 73.12661378 14.12661378 73.12661378 13 72 C12.90629376 70.22008076 12.88255729 68.43643261 12.88647461 66.65405273 C12.88655014 65.5129454 12.88662567 64.37183807 12.88670349 63.19615173 C12.89186478 61.9545076 12.89702606 60.71286346 12.90234375 59.43359375 C12.9037587 58.16983414 12.90517365 56.90607452 12.90663147 55.60401917 C12.91129418 52.23875111 12.9202852 48.8735501 12.93133545 45.50830078 C12.94155154 42.0765033 12.94612951 38.64469891 12.95117188 35.21289062 C12.9622262 28.47524176 12.9789829 21.73762475 13 15 C12.14535156 15.01160156 11.29070313 15.02320313 10.41015625 15.03515625 C9.30542969 15.04417969 8.20070313 15.05320312 7.0625 15.0625 C5.96035156 15.07410156 4.85820313 15.08570313 3.72265625 15.09765625 C1 15 1 15 0 14 C0 9.38 0 4.76 0 0 Z " fill="#FFFFFF" transform="translate(637,565)"/>
  <path d="M0 0 C6.1055471 -0.02464513 12.21106551 -0.04283371 18.31665039 -0.05493164 C20.39543156 -0.05997288 22.47420916 -0.06680574 24.55297852 -0.07543945 C27.53402586 -0.08751422 30.51502649 -0.09323024 33.49609375 -0.09765625 C34.89921059 -0.10539818 34.89921059 -0.10539818 36.33067322 -0.11329651 C37.19149002 -0.11337204 38.05230682 -0.11344757 38.93920898 -0.11352539 C40.08171364 -0.11685631 40.08171364 -0.11685631 41.24729919 -0.12025452 C43 0 43 0 44 1 C44.0989294 3.16480797 44.129711 5.33293785 44.125 7.5 C44.12886719 9.27890625 44.12886719 9.27890625 44.1328125 11.09375 C44 14 44 14 43 15 C40.81360547 15.07258946 38.62499611 15.08373783 36.4375 15.0625 C34.64119141 15.04896484 34.64119141 15.04896484 32.80859375 15.03515625 C31.88175781 15.02355469 30.95492187 15.01195312 30 15 C30.00222061 15.71187973 30.00444122 16.42375946 30.00672913 17.1572113 C30.02673253 23.85274235 30.04197438 30.54826511 30.05181217 37.24381924 C30.05703982 40.68640348 30.06413531 44.12896312 30.07543945 47.5715332 C30.08834235 51.52555043 30.09322918 55.47955756 30.09765625 59.43359375 C30.10281754 60.67523788 30.10797882 61.91688202 30.11329651 63.19615173 C30.11340981 64.90781273 30.11340981 64.90781273 30.11352539 66.65405273 C30.115746 67.664431 30.11796661 68.67480927 30.12025452 69.71580505 C30 72 30 72 29 73 C26.48863896 73.09975032 24.01096585 73.13882183 21.5 73.125 C20.79746094 73.12886719 20.09492187 73.13273438 19.37109375 73.13671875 C14.12661378 73.12661378 14.12661378 73.12661378 13 72 C12.87677242 70.22096643 12.82210981 68.43713797 12.79467773 66.65405273 C12.77473251 65.5129454 12.75478729 64.37183807 12.73423767 63.19615173 C12.71752518 61.9545076 12.70081268 60.71286346 12.68359375 59.43359375 C12.66281265 58.16983414 12.64203156 56.90607452 12.62062073 55.60401917 C12.56616286 52.23881367 12.5159572 48.87359827 12.46777344 45.50830078 C12.41760241 42.07644099 12.36189345 38.64467169 12.30664062 35.21289062 C12.19929809 28.47533239 12.09755675 21.73770664 12 15 C11.21753906 15.01160156 10.43507813 15.02320313 9.62890625 15.03515625 C8.61699219 15.04417969 7.60507812 15.05320312 6.5625 15.0625 C5.55316406 15.07410156 4.54382813 15.08570313 3.50390625 15.09765625 C1 15 1 15 0 14 C-0.07271741 11.64686445 -0.08370868 9.29166332 -0.0625 6.9375 C-0.05347656 5.64714844 -0.04445313 4.35679687 -0.03515625 3.02734375 C-0.02355469 2.02832031 -0.01195312 1.02929688 0 0 Z " fill="#FFFFFF" transform="translate(511,565)"/>
 
  <path d="M0 0 C5.28 0 10.56 0 16 0 C16 24.09 16 48.18 16 73 C10.72 73 5.44 73 0 73 C-1.88060496 71.11939504 -1.12780999 67.88641856 -1.12939453 65.38476562 C-1.13114685 64.69372238 -1.13289917 64.00267914 -1.13470459 63.29069519 C-1.13912254 60.99585493 -1.13618533 58.70109111 -1.1328125 56.40625 C-1.13348556 54.81823715 -1.13445559 53.23022441 -1.13571167 51.64221191 C-1.13718857 48.3098045 -1.13503436 44.97742384 -1.13037109 41.64501953 C-1.1246738 37.3640149 -1.12795285 33.08307295 -1.13394356 28.80207062 C-1.1375494 25.52166264 -1.13641048 22.24126963 -1.13381577 18.96086121 C-1.13314656 17.3819325 -1.1339747 15.80300246 -1.13629532 14.22407532 C-1.13882223 12.02109147 -1.13498075 9.81821051 -1.12939453 7.61523438 C-1.12859894 6.35916382 -1.12780334 5.10309326 -1.12698364 3.80895996 C-1 1 -1 1 0 0 Z " fill="#FFFFFF" transform="translate(434,565)"/>
  <path d="M0 0 C2.64590014 -0.02684679 5.29153096 -0.04676357 7.9375 -0.0625 C8.69224609 -0.07087891 9.44699219 -0.07925781 10.22460938 -0.08789062 C12.14994313 -0.09652441 14.07535581 -0.05224333 16 0 C17.88060496 1.88060496 17.12780999 5.11358144 17.12939453 7.61523438 C17.13114685 8.30627762 17.13289917 8.99732086 17.13470459 9.70930481 C17.13912254 12.00414507 17.13618533 14.29890889 17.1328125 16.59375 C17.13348556 18.18176285 17.13445559 19.76977559 17.13571167 21.35778809 C17.13718857 24.6901955 17.13503436 28.02257616 17.13037109 31.35498047 C17.1246738 35.6359851 17.12795285 39.91692705 17.13394356 44.19792938 C17.1375494 47.47833736 17.13641048 50.75873037 17.13381577 54.03913879 C17.13314656 55.6180675 17.1339747 57.19699754 17.13629532 58.77592468 C17.13882223 60.97890853 17.13498075 63.18178949 17.12939453 65.38476562 C17.12859894 66.64083618 17.12780334 67.89690674 17.12698364 69.19104004 C17 72 17 72 16 73 C13.48863896 73.09975032 11.01096585 73.13882183 8.5 73.125 C7.79746094 73.12886719 7.09492187 73.13273438 6.37109375 73.13671875 C1.12661378 73.12661378 1.12661378 73.12661378 0 72 C-0.09436529 69.76070114 -0.11742327 67.5183825 -0.11352539 65.27709961 C-0.11367142 64.5746965 -0.11381744 63.8722934 -0.1139679 63.14860535 C-0.11326872 60.81648722 -0.10547617 58.484448 -0.09765625 56.15234375 C-0.09579208 54.53951562 -0.09436818 52.92668693 -0.09336853 51.31385803 C-0.08954323 47.06084643 -0.07971285 42.80786876 -0.06866455 38.55487061 C-0.05845069 34.2182257 -0.05387096 29.88157533 -0.04882812 25.54492188 C-0.03809059 17.02993231 -0.02101403 8.51497037 0 0 Z " fill="#FFFFFF" transform="translate(614,565)"/>
  <path d="M0 0 C1.94238281 0.19897461 1.94238281 0.19897461 4 1 C5.09667969 2.67407227 5.09667969 2.67407227 5.921875 4.81640625 C6.37626953 5.96206055 6.37626953 5.96206055 6.83984375 7.13085938 C7.14019531 7.93330078 7.44054687 8.73574219 7.75 9.5625 C8.22373047 10.77196289 8.22373047 10.77196289 8.70703125 12.00585938 C9.48523782 13.99853983 10.24444266 15.99862199 11 18 C13.71208443 13.93187335 14.99437658 9.5388523 16.5859375 4.93359375 C18 2 18 2 20.1640625 0.59765625 C20.76992188 0.40042969 21.37578125 0.20320312 22 0 C25.09882106 2.0658807 25.44082177 2.43430095 26.60546875 5.6953125 C26.99702148 6.76845703 26.99702148 6.76845703 27.39648438 7.86328125 C27.65751953 8.60964844 27.91855469 9.35601563 28.1875 10.125 C28.59645508 11.25615234 28.59645508 11.25615234 29.01367188 12.41015625 C29.68471438 14.27023899 30.34354065 16.13472068 31 18 C31.39832031 16.95199219 31.79664063 15.90398438 32.20703125 14.82421875 C32.74177173 13.44515121 33.27695102 12.06625377 33.8125 10.6875 C34.07353516 9.99720703 34.33457031 9.30691406 34.60351562 8.59570312 C37.2225247 1.90267993 37.2225247 1.90267993 40 0 C40.99 0 41.98 0 43 0 C42.38651844 5.80890353 40.22302304 10.78508102 38 16.125 C37.26850157 17.89747698 36.53924725 19.67088216 35.8125 21.4453125 C35.48894531 22.22406738 35.16539062 23.00282227 34.83203125 23.80517578 C34.05436835 25.85658115 33.48199893 27.86204261 33 30 C31.10424805 29.71826172 31.10424805 29.71826172 29 29 C27.7330706 26.34745929 26.739072 23.89268261 25.8125 21.125 C25.55275391 20.39152344 25.29300781 19.65804687 25.02539062 18.90234375 C23.98341461 15.94603971 22.99121465 12.97364394 22 10 C21.34 9.67 20.68 9.34 20 9 C19.89816406 9.65355469 19.79632812 10.30710937 19.69140625 10.98046875 C18.7920704 14.90807673 17.38367698 18.55780849 15.9375 22.3125 C15.65583984 23.05306641 15.37417969 23.79363281 15.08398438 24.55664062 C14.39281425 26.37242655 13.69688311 28.18639899 13 30 C12.01 30 11.02 30 10 30 C8.34993019 25.91836588 6.70568007 21.83441212 5.0625 17.75 C4.35963867 16.01169922 4.35963867 16.01169922 3.64257812 14.23828125 C3.19462891 13.12324219 2.74667969 12.00820313 2.28515625 10.859375 C1.87144775 9.83295898 1.45773926 8.80654297 1.03149414 7.74902344 C0.18425735 5.4910622 -0.58749138 3.37457321 -1 1 C-0.67 0.67 -0.34 0.34 0 0 Z " fill="#FFFFFF" transform="translate(556,666)"/>


  <path d="M0 0 C4.42412193 2.4521296 6.85655479 5.36346019 8.41015625 10.2578125 C9.37461875 15.03330645 8.53876789 18.42803997 6.0859375 22.609375 C3.88152493 25.66579979 2.33128323 26.89340706 -1.1875 28.375 C-13.02220116 29.52457247 -13.02220116 29.52457247 -18.1875 26.375 C-18.1875 25.715 -18.1875 25.055 -18.1875 24.375 C-18.8475 24.375 -19.5075 24.375 -20.1875 24.375 C-23.7633552 20.38654612 -23.69870146 16.13085543 -23.52734375 11.03125 C-23.02950336 7.14008371 -21.92326218 5.17915623 -19.1875 2.375 C-12.95877282 -1.93511708 -7.09953456 -3.12327029 0 0 Z M-16.5 7.5625 C-18.63653142 11.1233857 -18.63401067 13.28198552 -18.1875 17.375 C-17.30082407 20.56703335 -16.32486471 21.28015294 -13.5625 23.1875 C-9.05888973 24.77210361 -6.83240667 24.49876774 -2.1875 23.375 C1.34127424 20.57007688 2.67018159 18.60842623 3.1875 14.125 C2.70502077 9.30020765 1.40391416 7.58434883 -2.1875 4.375 C-8.22794997 2.64915715 -11.955049 3.26322203 -16.5 7.5625 Z " fill="#FFFFFF" transform="translate(547.1875,667.625)"/>
  <path d="M0 0 C3.02515469 0.32412372 3.91241339 0.89828652 5.9375 3.25 C6.618125 4.1575 7.29875 5.065 8 6 C8.721875 6.721875 9.44375 7.44375 10.1875 8.1875 C14.3020426 12.3020426 18.12355864 16.66069997 22 21 C22 14.73 22 8.46 22 2 C23.32 1.34 24.64 0.68 26 0 C27 1 27 1 27.11352539 3.77563477 C27.10828857 4.98533936 27.10305176 6.19504395 27.09765625 7.44140625 C27.09443359 8.74658203 27.09121094 10.05175781 27.08789062 11.39648438 C27.07953401 12.7851569 27.07106905 14.17382877 27.0625 15.5625 C27.05748666 16.95507656 27.05292347 18.34765481 27.04882812 19.74023438 C27.03699434 23.1601987 27.0205088 26.58007844 27 30 C22.46985291 30.35747969 22.46985291 30.35747969 20.39428711 28.77832031 C19.9431958 28.21725586 19.49210449 27.65619141 19.02734375 27.078125 C18.52009766 26.46453125 18.01285156 25.8509375 17.49023438 25.21875 C16.97783203 24.5690625 16.46542969 23.919375 15.9375 23.25 C14.90633213 21.98324696 13.87381082 20.71759428 12.83984375 19.453125 C12.35628418 18.85306641 11.87272461 18.25300781 11.37451172 17.63476562 C9.89758127 15.82549295 9.89758127 15.82549295 7.62890625 13.671875 C6 12 6 12 6 10 C5.34 10 4.68 10 4 10 C4 16.6 4 23.2 4 30 C2.35 29.67 0.7 29.34 -1 29 C-1.02891546 24.54168018 -1.04676981 20.08338431 -1.0625 15.625 C-1.07087891 14.35398437 -1.07925781 13.08296875 -1.08789062 11.7734375 C-1.09111328 10.56171875 -1.09433594 9.35 -1.09765625 8.1015625 C-1.10289307 6.98088379 -1.10812988 5.86020508 -1.11352539 4.70556641 C-1 2 -1 2 0 0 Z " fill="#FFFFFF" transform="translate(429,666)"/>
  <path d="M0 0 C1.2375 0.7425 1.2375 0.7425 2.5 1.5 C2.5 2.82 2.5 4.14 2.5 5.5 C1.2625 5.2525 1.2625 5.2525 0 5 C-7.36487115 3.94592394 -7.36487115 3.94592394 -14.4375 5.875 C-16.59702406 7.33921726 -16.59702406 7.33921726 -17.5 9.5 C-17.91409424 13.62501571 -18.13921241 17.28245255 -16.1875 21 C-13.27226533 23.5913197 -10.53479731 23.61644634 -6.8125 23.5625 C-6.00425781 23.55347656 -5.19601562 23.54445313 -4.36328125 23.53515625 C-3.74839844 23.52355469 -3.13351562 23.51195312 -2.5 23.5 C-2.17 21.85 -1.84 20.2 -1.5 18.5 C-3.15 18.5 -4.8 18.5 -6.5 18.5 C-7.0625 16.5625 -7.0625 16.5625 -7.5 14.5 C-6.5 13.5 -6.5 13.5 -4.46875 13.3671875 C-3.6540625 13.36976563 -2.839375 13.37234375 -2 13.375 C-1.1853125 13.37242187 -0.370625 13.36984375 0.46875 13.3671875 C2.5 13.5 2.5 13.5 3.5 14.5 C3.73828125 16.8984375 3.73828125 16.8984375 3.8125 19.875 C3.84988281 20.85210938 3.88726562 21.82921875 3.92578125 22.8359375 C3.5 25.5 3.5 25.5 1.9140625 27.328125 C-1.3180573 28.8971152 -3.85437338 28.89794425 -7.4375 28.875 C-9.24541016 28.88660156 -9.24541016 28.88660156 -11.08984375 28.8984375 C-14.75374401 28.47035293 -16.59648741 27.73307452 -19.5 25.5 C-22.02981261 22.29309049 -23.86866386 18.54979035 -24.5 14.5 C-23.46653191 8.60501365 -21.25988125 4.2399067 -16.5 0.5 C-11.09504755 -2.56767572 -5.54502519 -2.37643937 0 0 Z " fill="#FFFFFF" transform="translate(493.5,667.5)"/>
  <path d="M0 0 C4.65487794 0.04447336 7.22068956 1.24632036 10.8125 4.3125 C12.8125 7.3125 12.8125 7.3125 12.5 10.375 C11.8125 13.3125 11.8125 13.3125 10.8125 15.3125 C10.1525 15.3125 9.4925 15.3125 8.8125 15.3125 C9.24175781 16.02792969 9.67101562 16.74335937 10.11328125 17.48046875 C12.6796875 21.7578125 15.24609375 26.03515625 17.8125 30.3125 C15.0703125 30.65234375 15.0703125 30.65234375 11.8125 30.3125 C9.6171875 27.94140625 9.6171875 27.94140625 7.6875 24.875 C4.88848665 20.13435445 4.88848665 20.13435445 -0.1875 18.3125 C-0.1875 22.2725 -0.1875 26.2325 -0.1875 30.3125 C-1.8375 30.3125 -3.4875 30.3125 -5.1875 30.3125 C-5.21215746 26.2007744 -5.23033959 22.08907722 -5.24243164 17.97729492 C-5.2474708 16.57754772 -5.25430216 15.1778058 -5.26293945 13.77807617 C-5.2750232 11.77004223 -5.28019807 9.76197043 -5.28515625 7.75390625 C-5.29039307 6.54420166 -5.29562988 5.33449707 -5.30102539 4.08813477 C-5.12607691 -0.1892616 -3.91614954 0.12463457 0 0 Z M-0.1875 5.3125 C-0.1875 7.9525 -0.1875 10.5925 -0.1875 13.3125 C1.81204746 13.35504356 3.81291636 13.35330783 5.8125 13.3125 C7.16868499 12.18715895 7.16868499 12.18715895 6.875 9.25 C6.854375 8.280625 6.83375 7.31125 6.8125 6.3125 C4.5025 5.9825 2.1925 5.6525 -0.1875 5.3125 Z " fill="#FFFFFF" transform="translate(408.1875,665.6875)"/>
  <path d="M0 0 C5.16865663 0.25419623 8.39880394 0.88254979 12.25 4.4375 C13.8125 7.1875 13.8125 7.1875 13.75 10.25 C12.82538243 13.14713504 11.81345857 14.92554684 9.8125 17.1875 C10.6478125 18.1775 10.6478125 18.1775 11.5 19.1875 C14.21148378 22.70510058 16.51454929 26.3921142 18.8125 30.1875 C16.0703125 30.52734375 16.0703125 30.52734375 12.8125 30.1875 C10.6171875 27.81640625 10.6171875 27.81640625 8.6875 24.75 C5.88848665 20.00935445 5.88848665 20.00935445 0.8125 18.1875 C0.8125 22.1475 0.8125 26.1075 0.8125 30.1875 C-0.8375 30.1875 -2.4875 30.1875 -4.1875 30.1875 C-4.21215746 26.0757744 -4.23033959 21.96407722 -4.24243164 17.85229492 C-4.2474708 16.45254772 -4.25430216 15.0528058 -4.26293945 13.65307617 C-4.2750232 11.64504223 -4.28019807 9.63697043 -4.28515625 7.62890625 C-4.29039307 6.41920166 -4.29562988 5.20949707 -4.30102539 3.96313477 C-4.13897748 0.00115056 -4.01991623 0.23646566 0 0 Z M0.8125 5.1875 C0.8125 7.8275 0.8125 10.4675 0.8125 13.1875 C2.81204746 13.23004356 4.81291636 13.22830783 6.8125 13.1875 C8.16868499 12.06215895 8.16868499 12.06215895 7.875 9.125 C7.854375 8.155625 7.83375 7.18625 7.8125 6.1875 C5.5025 5.8575 3.1925 5.5275 0.8125 5.1875 Z " fill="#FFFFFF" transform="translate(506.1875,665.8125)"/>
  <path d="M0 0 C1.65 0.33 3.3 0.66 5 1 C5.33 1.99 5.66 2.98 6 4 C6.66 4 7.32 4 8 4 C9.7143618 5.95927063 11.38405168 7.95880212 13 10 C13.721875 9.278125 14.44375 8.55625 15.1875 7.8125 C16.115625 6.884375 17.04375 5.95625 18 5 C18.845625 4.05125 19.69125 3.1025 20.5625 2.125 C21.366875 1.42375 22.17125 0.7225 23 0 C25.3125 0.1875 25.3125 0.1875 27 1 C25.48446596 4.47775179 23.4226544 6.9557984 20.875 9.75 C19.78832031 10.94882812 19.78832031 10.94882812 18.6796875 12.171875 C18.12539063 12.77515625 17.57109375 13.3784375 17 14 C19.5825571 18.60298032 22.772425 22.17043761 26.35546875 26.01171875 C28 28 28 28 28 30 C25.265625 30.30859375 25.265625 30.30859375 22 30 C19.734375 27.84765625 19.734375 27.84765625 17.75 25.0625 C15.35984793 21.46774451 15.35984793 21.46774451 12 19 C11.01 21.475 11.01 21.475 10 24 C9.34 24 8.68 24 8 24 C7.71125 24.61875 7.4225 25.2375 7.125 25.875 C6 28 6 28 4 30 C1.375 30.125 1.375 30.125 -1 30 C0.56367357 26.47761953 2.69495889 23.72876006 5.125 20.75 C5.84945312 19.85796875 6.57390625 18.9659375 7.3203125 18.046875 C8.15175781 17.03367187 8.15175781 17.03367187 9 16 C7.73507937 13.26919005 6.37988398 11.11437333 4.375 8.875 C2 6 2 6 2 4 C1.34 4 0.68 4 0 4 C0 2.68 0 1.36 0 0 Z " fill="#FFFFFF" transform="translate(626,666)"/>
  <path d="M0 0 C3 1 3 1 4.01147461 2.62304688 C4.45245483 3.66041992 4.45245483 3.66041992 4.90234375 4.71875 C5.23556641 5.48703125 5.56878906 6.2553125 5.91210938 7.046875 C6.25048828 7.85640625 6.58886719 8.6659375 6.9375 9.5 C7.43926758 10.66789063 7.43926758 10.66789063 7.95117188 11.859375 C8.62831263 13.43545599 9.30066286 15.0136036 9.96826172 16.59375 C11.34752976 19.81051901 12.80355708 22.99105962 14.26782227 26.16992188 C15 28 15 28 15 30 C13.35 30 11.7 30 10 30 C7 24.25 7 24.25 7 22 C3.04 22 -0.92 22 -5 22 C-5.309375 22.94875 -5.61875 23.8975 -5.9375 24.875 C-7 28 -7 28 -8 30 C-9.65 30 -11.3 30 -13 30 C-12.37204819 26.24967338 -11.29649739 23.03594545 -9.78515625 19.55078125 C-9.34623047 18.53822266 -8.90730469 17.52566406 -8.45507812 16.48242188 C-7.99552734 15.43634766 -7.53597656 14.39027344 -7.0625 13.3125 C-6.60681641 12.25482422 -6.15113281 11.19714844 -5.68164062 10.10742188 C-2.25442 2.25442 -2.25442 2.25442 0 0 Z M0 9 C-1.25664978 11.90600261 -2 13.79604584 -2 17 C-0.02 17 1.96 17 4 17 C3.40138258 14.64828869 2.73075648 12.3140622 2 10 C1.34 9.67 0.68 9.34 0 9 Z " fill="#FFFFFF" transform="translate(385,666)"/>
  <path d="M0 0 C2.45840605 -0.02691685 4.91651882 -0.04679802 7.375 -0.0625 C8.07367188 -0.07087891 8.77234375 -0.07925781 9.4921875 -0.08789062 C14.7734375 -0.11328125 14.7734375 -0.11328125 17 1 C17 2.32 17 3.64 17 5 C11.06 5.495 11.06 5.495 5 6 C4.67 8.31 4.34 10.62 4 13 C7.96 13 11.92 13 16 13 C16 14.32 16 15.64 16 17 C13.47524538 18.26237731 11.68799534 18.09856404 8.875 18.0625 C7.96492188 18.05347656 7.05484375 18.04445313 6.1171875 18.03515625 C5.06917969 18.01775391 5.06917969 18.01775391 4 18 C4.33 20.31 4.66 22.62 5 25 C8.96 25.33 12.92 25.66 17 26 C17 27.32 17 28.64 17 30 C14.18743719 30.02684312 11.37512759 30.04676188 8.5625 30.0625 C7.76005859 30.07087891 6.95761719 30.07925781 6.13085938 30.08789062 C4.08704779 30.0965143 2.04316098 30.0522815 0 30 C-1.79829077 28.20170923 -1.13035658 25.49022841 -1.1328125 23.06640625 C-1.13410156 21.86048828 -1.13539063 20.65457031 -1.13671875 19.41210938 C-1.13285156 18.14173828 -1.12898438 16.87136719 -1.125 15.5625 C-1.12886719 14.29599609 -1.13273437 13.02949219 -1.13671875 11.72460938 C-1.13542969 10.51740234 -1.13414062 9.31019531 -1.1328125 8.06640625 C-1.13168457 6.95209229 -1.13055664 5.83777832 -1.12939453 4.68969727 C-1 2 -1 2 0 0 Z " fill="#FFFFFF" transform="translate(354,666)"/>
  <path d="M0 0 C2.625 1.6875 2.625 1.6875 3.625 4.6875 C0.38697897 5.71947899 -1.97592141 5.58689294 -5.3125 5.0625 C-8.69738983 4.67864651 -10.14399081 4.59605886 -13.375 5.875 C-16.04079605 8.29087767 -17.26144864 10.322518 -17.5625 13.94140625 C-17.18040681 19.03454219 -17.18040681 19.03454219 -13.9375 22.8125 C-9.896575 23.80500789 -6.82387041 23.60299057 -2.7421875 23.01171875 C-0.375 22.6875 -0.375 22.6875 3.625 22.6875 C3.295 24.3375 2.965 25.9875 2.625 27.6875 C-3.14262834 29.61004278 -10.69459598 29.85853764 -16.5234375 28.00390625 C-20.22548317 25.739457 -22.03460263 22.70869211 -23.375 18.6875 C-24.07887629 14.38603379 -24.34674279 10.53450049 -22.2734375 6.59375 C-16.60577387 -0.55902335 -8.66983302 -3.37160173 0 0 Z " fill="#FFFFFF" transform="translate(679.375,667.3125)"/>
  <path d="M0 0 C0 1.32 0 2.64 0 4 C-3.09478879 5.03159626 -4.52631393 4.97482862 -7.6875 4.5625 C-8.49574219 4.46066406 -9.30398438 4.35882812 -10.13671875 4.25390625 C-10.75160156 4.17011719 -11.36648438 4.08632813 -12 4 C-12 6.64 -12 9.28 -12 12 C-8.37 12 -4.74 12 -1 12 C-0.67 13.32 -0.34 14.64 0 16 C-1.62487471 16.16788373 -3.24990442 16.33426787 -4.875 16.5 C-6.23238281 16.63921875 -6.23238281 16.63921875 -7.6171875 16.78125 C-10 17 -10 17 -12 17 C-12 19.64 -12 22.28 -12 25 C-8.04 25 -4.08 25 0 25 C0 26.32 0 27.64 0 29 C-5.61 29 -11.22 29 -17 29 C-17 19.43 -17 9.86 -17 0 C-11.17218959 -0.97130174 -5.71962566 -1.83028021 0 0 Z " fill="#FFFFFF" transform="translate(704,667)"/>
  <path d="M0 0 C0.33 1.65 0.66 3.3 1 5 C-2.96 5 -6.92 5 -11 5 C-11 7.64 -11 10.28 -11 13 C-7.37 13 -3.74 13 0 13 C0.33 14.32 0.66 15.64 1 17 C-3.3164922 17.76173392 -6.74433453 18.16063604 -11 17 C-11 19.97 -11 22.94 -11 26 C-7.04 26 -3.08 26 1 26 C1 27.32 1 28.64 1 30 C-4.61 30 -10.22 30 -16 30 C-16 20.43 -16 10.86 -16 1 C-10.41167406 0.3790749 -5.51858969 -0.1174168 0 0 Z " fill="#FFFFFF" transform="translate(622,666)"/>
  <path d="M0 0 C1.65 0.33 3.3 0.66 5 1 C5.33 8.92 5.66 16.84 6 25 C9.3 25 12.6 25 16 25 C18 27 18 27 18 30 C12.06 30 6.12 30 0 30 C-0.8716575 26.51336999 -1.12870221 23.97099503 -1.1328125 20.4296875 C-1.13410156 19.36878906 -1.13539063 18.30789063 -1.13671875 17.21484375 C-1.13285156 16.11269531 -1.12898438 15.01054688 -1.125 13.875 C-1.12886719 12.76511719 -1.13273437 11.65523437 -1.13671875 10.51171875 C-1.13542969 9.45339844 -1.13414062 8.39507813 -1.1328125 7.3046875 C-1.13168457 6.33515137 -1.13055664 5.36561523 -1.12939453 4.36669922 C-1 2 -1 2 0 0 Z " fill="#FFFFFF" transform="translate(333,666)"/>
  <path d="M0 0 C1.32 0.33 2.64 0.66 4 1 C4.33 8.92 4.66 16.84 5 25 C8.3 25 11.6 25 15 25 C15.66 25.33 16.32 25.66 17 26 C17 27.32 17 28.64 17 30 C11.06 30 5.12 30 -1 30 C-1.87144058 23.89991595 -2.18327781 18.30545621 -2.1875 12.1875 C-2.19974609 11.23423828 -2.21199219 10.28097656 -2.22460938 9.29882812 C-2.22654297 8.38939453 -2.22847656 7.47996094 -2.23046875 6.54296875 C-2.23457764 5.71821045 -2.23868652 4.89345215 -2.24291992 4.04370117 C-2 2 -2 2 0 0 Z " fill="#FFFFFF" transform="translate(709,666)"/>
  <path d="M0 0 C1.65 0.33 3.3 0.66 5 1 C5 2.32 5 3.64 5 5 C3.35 5 1.7 5 0 5 C-0.33 4.01 -0.66 3.02 -1 2 C-0.67 1.34 -0.34 0.68 0 0 Z " fill="#FFFFFF" transform="translate(461,691)"/>
  <path d="M0 0 C2.0625 0.4375 2.0625 0.4375 4 1 C4 2.32 4 3.64 4 5 C2.35 5 0.7 5 -1 5 C-1 1 -1 1 0 0 Z " fill="#FFFFFF" transform="translate(597,691)"/>
</g>
</svg>
